<svg width="960" height="680" viewBox="0 0 960 680" fill="none" xmlns="http://www.w3.org/2000/svg" role="img">
  <title>Maritime operations dashboard mockup for remote vessel guidance</title>
  <defs>
    <linearGradient id="frame" x1="80" y1="44" x2="880" y2="636" gradientUnits="userSpaceOnUse">
      <stop stop-color="#0B1727"/>
      <stop offset="1" stop-color="#113B54"/>
    </linearGradient>
    <linearGradient id="screen" x1="112" y1="94" x2="848" y2="588" gradientUnits="userSpaceOnUse">
      <stop stop-color="#102B3D"/>
      <stop offset="1" stop-color="#071521"/>
    </linearGradient>
    <linearGradient id="route" x1="226" y1="410" x2="572" y2="212" gradientUnits="userSpaceOnUse">
      <stop stop-color="#38BDF8"/>
      <stop offset="1" stop-color="#2DD4BF"/>
    </linearGradient>
    <filter id="shadow" x="-20%" y="-20%" width="140%" height="140%">
      <feDropShadow dx="0" dy="26" stdDeviation="24" flood-color="#06111D" flood-opacity="0.32"/>
    </filter>
    <pattern id="mapGrid" width="42" height="42" patternUnits="userSpaceOnUse">
      <path d="M42 0H0V42" stroke="#24465B" stroke-width="1"/>
    </pattern>
  </defs>

  <rect width="960" height="680" rx="34" fill="#EEF5F7"/>
  <rect x="70" y="44" width="820" height="592" rx="34" fill="url(#frame)" filter="url(#shadow)"/>
  <rect x="102" y="82" width="756" height="526" rx="22" fill="url(#screen)"/>

  <rect x="126" y="110" width="708" height="58" rx="14" fill="#0E2232"/>
  <text x="150" y="146" fill="#F8FAFC" font-family="Georgia, Times New Roman, serif" font-size="24" font-weight="700">Remote Vessel Guidance Operations View</text>
  <circle cx="762" cy="139" r="8" fill="#22C55E"/>
  <text x="778" y="145" fill="#BDEDE6" font-family="Georgia, Times New Roman, serif" font-size="14" font-weight="700">Live concept</text>

  <rect x="126" y="194" width="454" height="292" rx="18" fill="#0D2130" stroke="#24465B" stroke-width="2"/>
  <rect x="126" y="194" width="454" height="292" rx="18" fill="url(#mapGrid)" opacity="0.68"/>
  <path d="M160 418C221 389 250 329 314 315C383 299 426 356 478 309C514 276 515 231 550 218" stroke="url(#route)" stroke-width="7" stroke-linecap="round"/>
  <path d="M160 418C221 389 250 329 314 315C383 299 426 356 478 309C514 276 515 231 550 218" stroke="#E0F2FE" stroke-width="2" stroke-linecap="round" stroke-dasharray="8 14" opacity="0.7"/>
  <circle cx="160" cy="418" r="11" fill="#38BDF8"/>
  <circle cx="550" cy="218" r="11" fill="#2DD4BF"/>
  <path d="M361 322L395 304L434 322L402 339L361 322Z" fill="#E2E8F0"/>
  <path d="M394 287L395 304" stroke="#F8FAFC" stroke-width="5" stroke-linecap="round"/>
  <path d="M382 346C405 354 430 353 453 343" stroke="#38BDF8" stroke-width="5" stroke-linecap="round" opacity="0.7"/>
  <text x="154" y="226" fill="#E2E8F0" font-family="Georgia, Times New Roman, serif" font-size="16" font-weight="700">Guidance route</text>
  <text x="154" y="460" fill="#A9C3D2" font-family="Georgia, Times New Roman, serif" font-size="13">Vessel data -> operational review -> docking support</text>

  <rect x="608" y="194" width="226" height="88" rx="16" fill="#0E2232" stroke="#24465B" stroke-width="2"/>
  <text x="630" y="226" fill="#A9C3D2" font-family="Georgia, Times New Roman, serif" font-size="13">Project role</text>
  <text x="630" y="258" fill="#F8FAFC" font-family="Georgia, Times New Roman, serif" font-size="24" font-weight="700">Project Manager</text>

  <rect x="608" y="302" width="226" height="88" rx="16" fill="#0E2232" stroke="#24465B" stroke-width="2"/>
  <text x="630" y="334" fill="#A9C3D2" font-family="Georgia, Times New Roman, serif" font-size="13">Focus area</text>
  <text x="630" y="366" fill="#F8FAFC" font-family="Georgia, Times New Roman, serif" font-size="24" font-weight="700">Safe docking</text>

  <rect x="608" y="410" width="226" height="88" rx="16" fill="#0E2232" stroke="#24465B" stroke-width="2"/>
  <text x="630" y="440" fill="#A9C3D2" font-family="Georgia, Times New Roman, serif" font-size="13">Delivery outputs</text>
  <text x="630" y="466" fill="#F8FAFC" font-family="Georgia, Times New Roman, serif" font-size="20" font-weight="700">Plan</text>
  <text x="630" y="488" fill="#F8FAFC" font-family="Georgia, Times New Roman, serif" font-size="20" font-weight="700">Documentation</text>

  <rect x="126" y="526" width="708" height="70" rx="16" fill="#0E2232" stroke="#24465B" stroke-width="2"/>
  <text x="150" y="554" fill="#F8FAFC" font-family="Georgia, Times New Roman, serif" font-size="18" font-weight="700">Case study workflow</text>
  <text x="150" y="576" fill="#A9C3D2" font-family="Georgia, Times New Roman, serif" font-size="14">Scope -> risk review -> stakeholder updates -> final presentation</text>
  <rect x="710" y="546" width="92" height="30" rx="8" fill="#0F766E"/>
  <text x="733" y="566" fill="#F8FAFC" font-family="Georgia, Times New Roman, serif" font-size="13" font-weight="700">VRGP</text>
</svg>
